<svg width="100%" height="100%" viewBox="0 0 91.032 89.844" xmlns="http://www.w3.org/2000/svg">
    <g id="svgGroup" stroke-linecap="round" fill-rule="evenodd" stroke-width="0.25mm">
        <path d="M 38.359 28.702 A 74.426 74.426 0 0 0 44.769 20.606 A 6.025 6.025 0 0 0 45.094 20.031 Q 45.259 19.696 45.348 19.387 A 2.476 2.476 0 0 0 45.452 18.701 A 2.612 2.612 0 0 0 45.433 18.38 Q 45.406 18.16 45.339 17.984 A 1.026 1.026 0 0 0 45.013 17.53 A 1.093 1.093 0 0 0 44.633 17.339 Q 44.383 17.269 44.073 17.299 A 2.336 2.336 0 0 0 43.841 17.334 A 1.888 1.888 0 0 0 43.43 17.468 Q 42.915 17.702 42.425 18.262 A 100.733 100.733 0 0 1 41.104 19.813 Q 40.393 20.631 39.583 21.535 A 206.023 206.023 0 0 1 37.493 23.828 A 77.803 77.803 0 0 1 31.048 30.03 A 53.055 53.055 0 0 1 29.524 31.291 A 46.157 46.157 0 0 1 23.968 35.108 A 20.524 20.524 0 0 1 23.661 35.282 Q 22.183 36.108 20.753 36.579 A 11.834 11.834 0 0 1 17.034 37.207 A 10.98 10.98 0 0 1 13.958 36.768 A 6.985 6.985 0 0 1 11.272 35.303 A 7.162 7.162 0 0 1 10.198 34.119 A 9.218 9.218 0 0 1 9.319 32.617 Q 8.538 30.957 8.44 28.516 Q 9.264 27.912 10.243 27.23 A 134.254 134.254 0 0 1 11.858 26.123 A 987.321 987.321 0 0 0 13.86 24.768 A 1144.49 1144.49 0 0 0 15.96 23.34 Q 17.913 21.973 20.11 20.313 Q 22.308 18.653 24.261 16.602 Q 26.214 14.551 27.63 12.012 Q 29.046 9.473 29.339 6.446 Q 29.365 6.08 29.358 5.73 A 5.793 5.793 0 0 0 27.874 1.856 A 4.84 4.84 0 0 0 26.252 0.684 Q 25.449 0.317 24.428 0.147 A 11.749 11.749 0 0 0 22.503 0 A 12.994 12.994 0 0 0 18.306 0.71 A 16.729 16.729 0 0 0 14.739 2.442 A 27.97 27.97 0 0 0 14.469 2.615 A 29.517 29.517 0 0 0 7.806 8.594 A 38.476 38.476 0 0 0 2.63 16.748 A 30.535 30.535 0 0 0 1.078 20.685 A 22.454 22.454 0 0 0 0.14 25.196 Q -0.158 28.171 0.179 30.603 A 14.512 14.512 0 0 0 0.872 33.496 A 18.563 18.563 0 0 0 2.099 36.244 A 13.567 13.567 0 0 0 4.144 39.063 A 15.347 15.347 0 0 0 4.995 39.889 A 12.815 12.815 0 0 0 8.685 42.237 Q 9.871 42.725 10.98 42.981 A 10.421 10.421 0 0 0 13.323 43.262 A 18.385 18.385 0 0 0 17.354 42.804 A 23.122 23.122 0 0 0 21.77 41.309 A 39.217 39.217 0 0 0 24.199 40.114 A 44.803 44.803 0 0 0 30.267 36.182 A 60.473 60.473 0 0 0 38.128 28.955 A 81.265 81.265 0 0 0 38.359 28.702 Z M 19.769 5.567 Q 18.597 5.567 16.985 6.739 A 11.218 11.218 0 0 0 15.585 7.96 Q 14.942 8.615 14.307 9.438 A 21.35 21.35 0 0 0 13.812 10.108 A 23.96 23.96 0 0 0 12.39 12.382 Q 11.73 13.572 11.11 14.959 A 40.985 40.985 0 0 0 10.882 15.479 A 27.789 27.789 0 0 0 9.575 19.285 A 36.781 36.781 0 0 0 8.831 22.754 A 61.721 61.721 0 0 1 10.372 21.636 A 73.861 73.861 0 0 1 11.37 20.947 A 48.591 48.591 0 0 0 14.104 18.946 A 48.702 48.702 0 0 0 16.374 17.101 Q 18.797 14.998 19.964 13.281 A 17.005 17.005 0 0 0 20.82 11.892 Q 21.618 10.436 21.795 9.269 A 4.708 4.708 0 0 0 21.819 9.082 A 9.293 9.293 0 0 0 21.856 8.634 Q 21.916 7.568 21.679 6.893 A 2.011 2.011 0 0 0 21.429 6.397 A 1.868 1.868 0 0 0 20.077 5.585 A 2.523 2.523 0 0 0 19.769 5.567 Z" id="0" vector-effect="non-scaling-stroke"/>
        <path d="M 63.519 54.883 L 62.298 60.742 A 252.213 252.213 0 0 1 61.517 64.356 A 298.123 298.123 0 0 1 60.638 68.164 A 109.879 109.879 0 0 1 58.489 75.928 A 61.618 61.618 0 0 1 57.208 79.59 A 47.6 47.6 0 0 1 55.804 82.862 A 26.189 26.189 0 0 1 54.478 85.318 Q 53.577 86.785 52.581 87.891 A 6.928 6.928 0 0 1 51.326 89.003 A 4.643 4.643 0 0 1 48.675 89.844 A 9.089 9.089 0 0 1 45.641 89.353 A 8.037 8.037 0 0 1 43.157 87.94 A 15.621 15.621 0 0 1 39.965 84.285 A 18.499 18.499 0 0 1 39.3 83.155 Q 37.737 80.274 37.005 76.953 A 32.951 32.951 0 0 1 36.456 73.755 A 25.01 25.01 0 0 1 36.272 70.801 A 36.886 36.886 0 0 1 36.365 68.11 Q 36.523 65.945 36.956 64.307 A 14.423 14.423 0 0 1 38.84 60.114 A 16.763 16.763 0 0 1 39.349 59.375 A 25.403 25.403 0 0 1 41.008 57.346 Q 41.892 56.365 42.969 55.338 A 48.056 48.056 0 0 1 43.987 54.395 A 225.278 225.278 0 0 1 45.556 52.997 Q 48.064 50.781 51.507 47.852 Q 53.753 45.899 55.804 44.141 A 135.725 135.725 0 0 1 58.291 42.058 A 111.005 111.005 0 0 1 59.71 40.918 A 622.818 622.818 0 0 1 60.186 39.026 A 511.165 511.165 0 0 1 60.638 37.256 Q 61.048 35.661 61.331 34.363 A 56.02 56.02 0 0 0 61.37 34.18 A 23.906 23.906 0 0 1 55.267 39.942 A 14.31 14.31 0 0 1 47.964 42.265 A 17.435 17.435 0 0 1 47.112 42.285 A 7.651 7.651 0 0 1 41.173 39.609 A 10.814 10.814 0 0 1 40.325 38.526 A 12.477 12.477 0 0 1 38.748 35.205 Q 37.741 32.031 37.737 27.476 A 41.605 41.605 0 0 1 37.737 27.442 A 23.284 23.284 0 0 1 37.999 24.076 Q 38.24 22.425 38.706 20.598 A 43.981 43.981 0 0 1 39.104 19.141 A 35.502 35.502 0 0 1 43.011 10.352 A 25.537 25.537 0 0 1 49.261 3.418 Q 52.972 0.586 57.562 0.586 Q 59.71 0.586 61.272 1.66 Q 62.835 2.735 63.909 4.346 Q 64.983 5.957 65.569 7.764 A 31.175 31.175 0 0 1 66.082 9.51 A 23.867 23.867 0 0 1 66.448 11.133 Q 66.644 10.547 66.741 9.912 A 5.964 5.964 0 0 1 66.863 9.314 A 4.411 4.411 0 0 1 67.034 8.789 Q 67.833 6.072 68.796 4.761 A 4.438 4.438 0 0 1 69.231 4.248 Q 70.452 3.028 72.894 3.028 Q 74.052 3.028 74.896 3.378 A 3.588 3.588 0 0 1 75.188 3.516 A 4.89 4.89 0 0 1 75.527 3.71 Q 76.035 4.032 76.105 4.308 A 0.352 0.352 0 0 1 76.116 4.395 Q 75.742 5.217 75.483 5.753 A 25.67 25.67 0 0 1 75.335 6.055 A 42.853 42.853 0 0 0 74.822 7.118 A 47.191 47.191 0 0 0 74.749 7.276 A 8.68 8.68 0 0 0 74.529 7.8 Q 74.421 8.083 74.312 8.413 A 18.68 18.68 0 0 0 74.163 8.887 A 43.33 43.33 0 0 0 74.004 9.43 Q 73.748 10.327 73.382 11.719 A 11.432 11.432 0 0 0 73.297 12.039 Q 73.086 12.869 72.649 14.893 A 175.602 175.602 0 0 1 72.205 16.891 Q 71.801 18.665 71.282 20.801 A 429.558 429.558 0 0 0 70.428 24.39 A 561.296 561.296 0 0 0 69.524 28.321 A 7249.384 7249.384 0 0 0 67.718 36.328 A 45.757 45.757 0 0 0 70.856 34.354 A 58.074 58.074 0 0 0 73.382 32.52 A 99.458 99.458 0 0 0 78.948 27.93 A 105.64 105.64 0 0 0 81.438 25.647 A 80.186 80.186 0 0 0 83.636 23.487 A 56.735 56.735 0 0 0 84.594 22.483 Q 85.617 21.382 86.287 20.523 A 15.157 15.157 0 0 0 86.663 20.02 A 6.072 6.072 0 0 1 87.303 19.209 Q 87.826 18.657 88.421 18.36 A 4.294 4.294 0 0 1 88.942 18.138 Q 89.39 17.984 89.779 17.984 A 1.786 1.786 0 0 1 90.13 18.018 Q 90.862 18.164 91.009 18.897 Q 91.14 19.553 90.526 20.642 A 7.91 7.91 0 0 1 90.374 20.899 A 41.411 41.411 0 0 1 86.456 26.181 A 47.792 47.792 0 0 1 84.905 27.881 A 90.694 90.694 0 0 1 78.313 34.131 A 88.442 88.442 0 0 1 74.28 37.388 A 71.817 71.817 0 0 1 71.77 39.209 A 170.697 170.697 0 0 1 70.242 40.256 Q 69.139 41.001 68.168 41.63 A 78.333 78.333 0 0 1 66.351 42.774 A 473.187 473.187 0 0 1 65.881 44.867 Q 65.203 47.852 64.69 49.903 A 193.913 193.913 0 0 0 64.056 52.515 A 142.894 142.894 0 0 0 63.519 54.883 Z M 51.214 35.645 A 7.423 7.423 0 0 0 55.071 34.571 Q 56.878 33.496 58.343 32.08 A 19.475 19.475 0 0 0 59.836 30.472 A 15.638 15.638 0 0 0 60.784 29.199 A 64.567 64.567 0 0 0 61.242 28.504 Q 61.883 27.515 62.249 26.856 Q 62.64 25.977 63.177 24.512 A 22.182 22.182 0 0 0 63.8 22.545 A 18.829 18.829 0 0 0 64.007 21.68 A 12.26 12.26 0 0 0 64.187 20.629 Q 64.28 19.881 64.251 19.239 Q 64.229 18.76 64.082 18.476 A 0.721 0.721 0 0 0 63.519 18.067 A 1.112 1.112 0 0 1 62.858 17.69 Q 62.728 17.544 62.621 17.344 A 2.348 2.348 0 0 1 62.591 17.285 A 6.08 6.08 0 0 1 62.253 16.455 A 7.799 7.799 0 0 1 62.054 15.723 Q 61.858 14.844 61.81 13.965 Q 61.768 13.21 61.69 12.599 A 13.284 13.284 0 0 0 61.663 12.403 A 20.396 20.396 0 0 0 61.334 10.627 Q 60.918 8.854 60.245 7.777 A 5.028 5.028 0 0 0 60.003 7.422 A 5.12 5.12 0 0 0 59.281 6.632 Q 58.79 6.204 58.255 6.013 A 2.628 2.628 0 0 0 57.366 5.86 A 6.279 6.279 0 0 0 54.16 6.762 A 8.963 8.963 0 0 0 52.728 7.813 A 16.927 16.927 0 0 0 50.35 10.446 A 22.35 22.35 0 0 0 48.821 12.842 A 28.946 28.946 0 0 0 46.425 18.562 A 32.775 32.775 0 0 0 46.136 19.58 A 29.438 29.438 0 0 0 45.32 23.809 A 24.164 24.164 0 0 0 45.159 26.563 A 23.422 23.422 0 0 0 45.295 29.164 Q 45.557 31.511 46.331 33.155 A 4.043 4.043 0 0 0 48.963 35.35 Q 49.938 35.645 51.214 35.645 Z M 46.722 80.957 A 2.589 2.589 0 0 0 48.541 80.191 Q 48.946 79.809 49.303 79.236 A 8.376 8.376 0 0 0 49.895 78.076 Q 51.116 75.196 52.483 70.215 A 335.33 335.33 0 0 0 52.645 69.565 Q 52.911 68.494 53.313 66.846 A 315.883 315.883 0 0 1 53.821 64.802 Q 54.171 63.41 54.583 61.817 A 304.369 304.369 0 0 0 55.328 58.875 A 375.187 375.187 0 0 0 56.097 55.713 Q 56.878 52.442 57.757 49.121 Q 56.976 49.805 56.145 50.537 Q 55.315 51.27 54.437 52.246 Q 52.288 54.297 50.286 56.201 A 31.455 31.455 0 0 0 46.771 60.14 A 29.178 29.178 0 0 0 46.722 60.205 A 18.693 18.693 0 0 0 44.231 64.746 A 13.717 13.717 0 0 0 43.508 67.561 Q 43.304 68.9 43.304 70.41 Q 43.304 73.633 43.548 75.684 Q 43.792 77.735 44.231 78.906 Q 44.671 80.078 45.306 80.518 A 2.431 2.431 0 0 0 46.722 80.957 Z" id="1" vector-effect="non-scaling-stroke"/>
    </g>
</svg>